<svg xmlns="http://www.w3.org/2000/svg" viewBox="120 0 96 112" role="img" aria-label="Modulate.AI">
  <path fill="#285FEB" d="M156.47 47.97 136.48 18.44l-2.75 1.79 20.05 29.61c.85-.69 1.75-1.31 2.69-1.88Zm4.57-2.1L149.8 20.14l-3.03 1.26 11.24 25.73c.97-.49 1.99-.91 3.03-1.26Zm49.08 26.37-18.18-2.77c-.06 1.11-.2 2.19-.41 3.25l18.04 2.75.55-3.23ZM190 77.56l12.41 4.04 1.07-3.1-12.38-4.03c-.3 1.06-.67 2.1-1.1 3.09Zm8.81-37-13.42 11.28c.76.79 1.46 1.63 2.11 2.51l13.38-11.25-2.07-2.55Zm-1.5 13.96-1.54-2.9-7.36 4.07c.58.92 1.09 1.89 1.54 2.9l7.36-4.07Zm7.09 12.89-.07-3.28-12.61.49c.16 1.07.25 2.16.26 3.27l12.42-.48Zm-35.9-22.76c.8 0 1.59.04 2.38.12l-.07-23.37-3.28-.04.07 23.32c.3-.01.6-.02.9-.02Zm10.65-13.04-3.18-.83-3.45 14.22c1.09.19 2.15.45 3.19.78l3.44-14.18Zm-13.31 13.2-6.93-37.94-3.24.54 6.94 37.99c1.05-.27 2.13-.47 3.23-.59Zm18.29 5.81 18.26-22.43-2.51-2.11-18.34 22.53c.91.61 1.78 1.28 2.59 2.01Zm7.29 12.45 17.89-5.69-.94-3.14-17.88 5.69c.38 1.02.69 2.07.93 3.15ZM180.2 47.78l7.21-15.92-2.97-1.4-7.19 15.88c1.02.41 2.01.89 2.95 1.44Zm8.49 32.31c-.12.21-.25.41-.38.62-.15.24-.31.47-.47.71-4.23 6.15-11.3 10.18-19.33 10.18-12.96 0-23.47-10.51-23.47-23.47 0-6.71 2.82-12.77 7.34-17.04.05-.06.1-.11.16-.16l-21.28-22.83-2.44 2.2 10.17 10.92c-6.49 7.1-10.46 16.54-10.46 26.92 0 22.08 17.9 39.98 39.98 39.98 14.4 0 27.01-7.61 34.04-19.03l8.5 4.11 1.48-2.93-23.23-11.23c-.19.36-.4.71-.61 1.06Z"/>
</svg>
