<svg xmlns="http://www.w3.org/2000/svg" viewBox="5 99.4 118 76">
<!-- SVG created with Arrow, by QuiverAI (https://quiver.ai) -->
  <style type="text/css">.cls-0 {fill:#253037;}
.cls-1 {fill:#CFAF6A;}</style>
  <path class="cls-0" d="m83.6 99c-2.8 0-9.6 0.3-16.3 2.7-3.3 1.2-6 2.3-8.2 3.6-5.9 3.2-14.1 8.5-13.6 18.3-1.1-2.2-1.1-5.1 0.2-7.8 0 0-5.7 4.1-7.7 7.8s-1.4 10.3-1.4 10.3c-2.3-4-0.8-7.8 0-9.4-1.6 1.3-6.1 6.2-7.4 10.2-1.6 4.5-0.4 8.8-0.4 8.8-1.2-2-1.2-4.7-0.9-7.3-2.1 4.3-2.7 6.5-1.3 11.4 0.4 3-0.5 4.2-1.2 5.4l4.2 3.7c0.9-1.1 2.5-2.4 5-2.4 2 0 3.6 0.6 9.7-1.9-2.7 0.1-6-1.1-6-1.1 2.3 0 5.1-0.2 6.9-0.8 5.2-1.6 9.2-6.7 9.8-7.8-3.6 2.4-8 2.8-12.5 2.2 4.5-0.9 8.5-0.9 12.9-3.9 1.7-1.3 2.5-2 5-5 2.2-2.6 6.4-6.4 9.5-10.9-2.9 1.8-6.4 3.4-11.3 1.6 6.8 0.2 12.9-2.5 16.6-8 2.5-3.6 5.2-9.7 8.4-19.7z"/>
  <path class="cls-0" d="m23 168.6c0.9-3.2 2.6-6.2 5-9.5l-4.6-3.7c-2 3.5-5 6.1-7.7 8.2-0.7 4.9-1.9 8.6-4 11.5-0.1 0.3 0.6 0.9 0.9 0.5 1.1-1.6 4.2-5 10.4-7z"/>
  <path class="cls-1" d="m25.5 152.4c-0.5-0.2-0.9-0.2-1.2 0.1l-0.7 0.8c-0.2 0.3-0.2 0.9 0.3 1.2 2.2 0.6 4.1 2.8 4.7 4 0.4 0.2 0.8 0.4 1.1 0l0.4-0.5c0.3-0.4 0.3-0.9 0-1.3-0.5-1.1-2.5-3.4-4.6-4.3z"/>
  <path class="cls-1" d="m22.4 155.6-0.3 0.2c-0.5 0.4 0 1.3 0.3 1.6h0.6c1.1 0.4 3.7 2.2 3.8 3.3v0.4h0.8c0.4-0.2 0.8-0.6 0.4-1.3-1.2-2.2-4.4-4.2-5.6-4.2z"/>
  <path class="cls-1" d="m26.6 153.6 2.4 1.5c7.6-10.9 20.7-28.6 36.1-41.7l6.9-6.1c-11.9 7.8-26.6 20.3-45.4 46.3z"/>
  <path class="cls-0" d="m86.1 136.7c-5.8-0.2-9.5 1.7-12.5 5.5-2.8 3.8-3 8.5-7.3 13.2-2.7 2.8-7.1 5.7-12.7 5.7-5.6-0.6-9.2-1.5-13.7-0.6-3.1 0.6-5.9 1.9-7.3 2.8-4.2 2.7-6.5 7.2-12.9 10.5 6.2-1.8 9.7-6.2 14.3-8.2 3-1.4 5-1.6 7-1.6 4.2 0 7.4 1.4 11 2.7 1.9 0.8 4.6 1.9 8.4 2 4.3 0.2 8.2-1.4 10.4-3.4 1.8-1.5 3.8-4 4.9-6.6 2.2-5.1 5-10.9 14-11.1 6.9 0 13.3-0.7 17.9-4.5 3.8-2.9 7.2-8.4 8.8-15.8-3.4 6.7-8.7 10.7-17.3 10.5-5.1 0-7.7-0.9-13-1.1z"/>
</svg>
